<?xml version="1.0" standalone="no"?>
<!DOCTYPE svg PUBLIC "-//W3C//DTD SVG 20010904//EN"
 "http://www.w3.org/TR/2001/REC-SVG-20010904/DTD/svg10.dtd">
<svg version="1.0" xmlns="http://www.w3.org/2000/svg"
 width="796.000000pt" height="796.000000pt" viewBox="0 0 796.000000 796.000000"
 preserveAspectRatio="xMidYMid meet">
<metadata>
Created by potrace 1.14, written by Peter Selinger 2001-2017
</metadata>
<g transform="translate(0.000000,796.000000) scale(0.100000,-0.100000)"
fill="#000000" stroke="none">
<path d="M5468 4808 l-3 -643 -32 -67 c-130 -276 -505 -304 -672 -51 -46 69
-60 131 -65 278 -5 152 -25 252 -72 354 -101 220 -272 379 -496 460 -98 36
-168 45 -348 44 -147 0 -188 -4 -255 -22 -307 -82 -534 -310 -616 -616 -30
-112 -35 -439 -8 -560 69 -316 293 -556 609 -649 93 -28 299 -38 446 -23 64 7
180 39 227 63 27 14 27 14 28 -18 0 -18 1 -217 1 -441 l1 -409 52 7 c223 26
409 198 455 420 6 30 12 143 12 249 l0 194 35 -14 c104 -44 332 -71 429 -50
16 3 45 8 64 10 135 17 332 122 453 240 130 128 213 277 264 475 3 14 8 229
10 477 5 506 2 530 -63 655 -44 83 -139 176 -224 219 -58 29 -163 60 -207 60
l-22 0 -3 -642z m-1552 -234 c86 -29 149 -86 191 -174 22 -45 27 -71 28 -148
3 -108 -8 -159 -46 -223 -65 -105 -163 -157 -298 -157 -164 0 -284 81 -331
223 -19 57 -21 204 -4 262 29 98 107 181 202 215 63 22 193 23 258 2z"/>
<path d="M6550 5434 c-203 -54 -366 -230 -397 -429 -8 -53 -8 -835 1 -904 14
-120 59 -249 125 -356 48 -79 63 -97 145 -179 140 -139 327 -230 515 -252 64
-8 204 -7 241 1 14 2 50 10 80 16 175 35 379 165 507 324 73 90 157 271 179
383 3 20 8 214 11 431 l4 394 -53 -6 c-69 -7 -158 -38 -216 -77 -166 -108
-248 -262 -252 -470 0 -47 -3 -101 -6 -120 -9 -61 -60 -156 -110 -205 -184
-181 -479 -138 -608 87 -49 85 -51 118 -50 771 l1 607 -31 -1 c-17 0 -56 -7
-86 -15z"/>
<path d="M775 5113 c-221 -46 -363 -118 -503 -255 -182 -178 -273 -404 -267
-663 4 -190 47 -331 151 -486 140 -211 383 -362 637 -396 23 -3 350 -6 727 -7
519 -1 701 2 750 11 159 31 304 142 374 284 41 85 70 205 52 217 -6 4 -409 7
-896 8 -487 0 -902 4 -924 8 -61 12 -140 54 -189 100 -46 44 -95 118 -102 154
-2 11 -8 35 -13 53 -19 71 2 197 46 268 54 88 156 162 246 180 28 6 80 11 116
12 259 8 394 156 404 445 l3 74 -296 -1 c-163 -1 -305 -4 -316 -6z"/>
<path d="M1681 5098 c-62 -23 -136 -94 -163 -158 -11 -25 -23 -74 -25 -110
-18 -246 257 -407 468 -274 52 33 108 101 124 154 7 25 14 39 14 32 1 -7 13
-38 28 -69 65 -133 232 -197 377 -146 58 21 139 91 165 142 79 155 20 338
-133 419 -44 23 -64 27 -136 27 -71 0 -93 -4 -134 -25 -66 -33 -113 -82 -147
-155 -16 -33 -29 -52 -29 -42 0 33 -49 115 -91 151 -87 74 -208 95 -318 54z"/>
<path d="M7505 3119 c-100 -31 -181 -110 -205 -199 -6 -23 -8 -20 -32 30 -29
64 -85 122 -148 153 -65 32 -207 32 -265 0 -74 -41 -136 -109 -150 -166 -10
-37 -21 -34 -36 10 -18 55 -113 146 -173 166 -74 25 -170 22 -233 -7 -64 -30
-129 -94 -156 -155 -30 -66 -30 -188 1 -254 86 -183 327 -234 479 -102 28 25
60 65 74 94 13 28 27 51 31 51 3 0 9 -12 12 -27 8 -36 67 -110 110 -139 115
-79 280 -68 380 24 37 35 86 111 86 134 0 10 5 18 10 18 6 0 10 -7 10 -15 0
-52 83 -150 158 -186 67 -32 198 -33 262 -2 63 31 119 89 149 153 34 74 35
182 1 252 -65 138 -224 211 -365 167z"/>
</g>
</svg>
